<?xml version="1.0" encoding="utf-8"?>
<!-- Generator: Adobe Illustrator 15.1.0, SVG Export Plug-In  -->
<!DOCTYPE svg PUBLIC "-//W3C//DTD SVG 1.1//EN" "http://www.w3.org/Graphics/SVG/1.1/DTD/svg11.dtd" [
	<!ENTITY ns_flows "http://ns.adobe.com/Flows/1.0/">
]>
<svg version="1.1"
	 xmlns="http://www.w3.org/2000/svg" xmlns:xlink="http://www.w3.org/1999/xlink" xmlns:a="http://ns.adobe.com/AdobeSVGViewerExtensions/3.0/"
	 x="0px" y="0px" width="635px" height="560px" viewBox="-23.939 -32.144 635 560" enable-background="new -23.939 -32.144 635 560"
	 xml:space="preserve">
<defs>
</defs>
<path fill="#FFFFFF" d="M143.38,217.302H75.295c-34.042,0-54.846-0.272-63.672-0.272H7.21V0h147.518
	c40.978,0,65.563,5.445,76.28,16.61c5.044,5.719,8.195,18.789,8.195,40.029c0,19.879-12.608,29.682-44.759,34.039
	c30.26,4.356,45.39,19.062,45.39,44.386v12.799c0,4.629,0.63,8.169,0.63,10.892v1.906
	C240.464,210.494,221.552,217.302,143.38,217.302z M134.555,47.926c0-8.441-3.152-10.893-22.695-10.893v32.949
	c19.543,0,22.695-0.816,22.695-10.075V47.926z M134.555,127.168c0-14.978-3.152-14.978-22.695-14.978v66.443
	c17.021,0,22.695-2.179,22.695-16.339V127.168z"/>
<path fill="#FFFFFF" d="M385.742,128.176c0,15.499-6.755,18.521-66.755,18.521c-50.067,0-60.001-3.284-60.001-17.207V86.933
	c0-18.651,7.55-20.885,63.975-20.885c54.04,0,62.781,3.416,62.781,17.995V128.176z M328.921,87.063c0-3.414-2.384-5.122-6.755-5.122
	c-3.974,0-5.961,2.495-5.961,7.487v37.303c0,2.627,1.987,3.939,5.961,3.939c4.371,0,6.755-1.838,6.755-5.647V87.063z"/>
<path fill="#FFFFFF" d="M590.292,199.853h-79.656l-9.821-20.673c-1.637-1.992-6.547-14.695-14.185-38.356v59.029h-78.021V1.345
	h78.021v104.608c2.728-9.215,7.093-23.163,13.64-41.844l6.547-14.694h75.292l-39.828,71.233L590.292,199.853z"/>
<path fill="#FFFFFF" d="M229.015,455.208c0,39.897-15.474,50.81-116.364,50.81c-94.7,0-111.412-8.866-111.412-55.584v-55.925
	h102.128v46.718c0,11.253,3.095,16.709,9.903,16.709c8.047,0,12.379-6.138,12.379-18.073v-37.51c0-6.82-2.476-8.185-29.091-16.71
	c-79.227-24.552-95.319-26.257-95.319-71.951v-12.617C1.238,296.3,0,292.549,0,289.821c0-47.741,11.142-58.653,113.889-58.653
	c103.984,0,115.126,10.23,115.126,55.243v38.192H125.648v-30.009c0-11.253-3.713-17.05-11.76-17.05
	c-5.57,0-10.522,5.797-10.522,17.05v20.119c0,6.139,7.428,12.959,22.901,18.073c88.511,28.304,102.747,27.963,102.747,74.339
	V455.208z"/>
<path fill="#FFFFFF" d="M369.197,362.527h-58.924c-49.83,0-57.468-7.42-57.468-36.277v-26.933c0-24.46,14.185-34.078,46.192-34.078
	h18.187v-26.108c0-7.146-1.818-10.719-5.456-10.719c-4.001,0-5.819,7.695-5.819,22.811h-53.104v-14.291
	c0-37.651,9.456-42.323,59.287-42.323c48.375,0,57.104,7.421,57.104,35.453V362.527z M317.185,299.317
	c-7.639,0-11.275,4.122-11.275,12.367v7.695c0,6.87,3.637,10.443,11.275,10.443V299.317z"/>
<path fill="#FFFFFF" d="M556.61,323.122h-38.781v-69.854c0-6.836-1.337-10.17-4.279-10.17s-4.547,3.334-4.547,10.17v69.854h-38.514
	v-69.854c0-6.836-1.337-10.17-4.012-10.17c-2.942,0-4.547,3.334-4.547,10.17v69.854h-38.246V222.425h38.246v5.502
	c5.35-4.335,12.304-6.502,20.862-6.502c8.291,0,14.977,2.167,20.059,6.502c5.617-4.502,13.105-6.669,21.932-6.669
	c21.129,0,31.827,10.67,31.827,32.01V323.122z"/>
<path fill="#FFFFFF" d="M405.772,410.358c0,20.514-8.312,21.356-51.128,22.059v43.275h-41.809v-111.98h58.936
	c26.697,0,34.001,4.355,34.001,24.869V410.358z M363.712,389.845c0-4.637-3.022-7.024-9.067-7.024v30.067
	c6.801,0,9.067-1.405,9.067-6.183V389.845z"/>
<path fill="#FFFFFF" d="M507.851,368.018c18.067,0,33.912,4.219,47.537,12.654c9.773,6.041,17.622,13.899,23.546,23.578
	c6.12,10.124,9.182,20.693,9.182,31.703c0,19.271-9.825,35.656-29.47,49.153c-18.759,12.878-40.232,19.315-64.419,19.315
	c-23.598,0-42.701-6.038-57.311-18.116c-14.217-11.723-21.325-26.995-21.325-45.823c0-20.957,8.687-38.098,26.063-51.418
	C459.818,375.034,481.884,368.018,507.851,368.018z M496.004,398.788c-4.346,0-7.826,1.445-10.44,4.33
	c-2.617,2.887-3.925,6.727-3.925,11.522c0,5.328,1.11,12.588,3.332,21.779c2.222,9.19,4.861,17.34,7.923,24.443
	c3.059,7.282,8.046,10.923,14.957,10.923c8.786,0,13.18-5.017,13.18-15.053c0-7.459-1.11-15.938-3.332-25.442
	c-2.221-9.501-4.912-17.228-8.07-23.178C506.37,402.075,501.827,398.968,496.004,398.788z"/>
</svg>
