<?xml version="1.0" encoding="utf-8"?>
<!-- Generator: Adobe Illustrator 15.1.0, SVG Export Plug-In  -->
<!DOCTYPE svg PUBLIC "-//W3C//DTD SVG 1.1//EN" "http://www.w3.org/Graphics/SVG/1.1/DTD/svg11.dtd" [
	<!ENTITY ns_flows "http://ns.adobe.com/Flows/1.0/">
]>
<svg version="1.1"
	 xmlns="http://www.w3.org/2000/svg" xmlns:xlink="http://www.w3.org/1999/xlink" xmlns:a="http://ns.adobe.com/AdobeSVGViewerExtensions/3.0/"
	 x="0px" y="0px" width="635px" height="560px" viewBox="-19.842 -20.342 635 560" enable-background="new -19.842 -20.342 635 560"
	 xml:space="preserve">
<defs>
</defs>
<rect x="270.691" y="2.272" fill="#FFFFFF" width="79.583" height="19.501"/>
<path fill="#FFFFFF" d="M112.361,113.242c8.236,40.047,18.367,62.02,20.27,66.191l15.82,43.105h103.215L183.281,94.33l59.523-93.445
	H139.59l-8.861,21.691c-10.131,25.03-14.563,43.943-18.367,56.458V0.885H7.244v221.654h105.117V113.242z"/>
<rect x="270.691" y="38.118" fill="#FFFFFF" width="79.584" height="112.184"/>
<path fill="#FFFFFF" d="M479.592,85.437h9.631c7.936,0,10.764,0.975,10.764,10.143v59.881h94.596V97.724
	c0-14.629-11.893-23.797-35.115-27.697c26.053-3.512,35.115-11.117,35.115-31.99C594.582,3.317,578.16,0,499.986,0H385.564v155.46
	h94.027V85.437z M479.592,26.724c16.432,0,20.395,0.584,20.395,5.852v12.484c0,10.337-3.396,10.337-20.395,10.337V26.724z"/>
<rect x="272.537" y="172.21" fill="#FFFFFF" width="83.471" height="17.881"/>
<path fill="#FFFFFF" d="M494.104,179.996c-88.32,0-105.084,2.766-105.084,25.031v8.449h94.127c0-8.938,3.221-13.488,10.314-13.488
	c6.441,0,9.672,2.113,9.672,6.338v15.439h-32.236c-56.734,0-81.877,5.689-81.877,20.154v15.926
	c0,17.064,13.535,21.455,101.863,21.455h104.434v-78.338C595.316,184.386,579.846,179.996,494.104,179.996z M503.133,259.96
	c-13.543,0-19.986-2.115-19.986-6.178v-4.551c0-4.875,6.443-7.313,19.986-7.313V259.96z"/>
<path fill="#FFFFFF" d="M126.83,340.75c-15.545-5.225-23.006-12.191-23.006-18.459v-20.553c0-11.494,4.975-17.414,10.572-17.414
	c8.078,0,11.809,5.92,11.809,17.414v31.293l145.756-0.242c55.842,0,84.047-10.389,84.047-31.334v-96.381h-83.471V303.5
	c0,5.957-6.326,8.854-19.568,8.854c-6.719,0-14.295-0.121-22.939-0.26V293.38c0-45.98-11.191-56.43-115.633-56.43
	C11.191,236.951,0,248.097,0,296.861c0,2.787,1.244,6.621,1.244,11.494v12.889c0,46.676,16.164,48.42,95.746,73.496
	c26.729,8.711,29.215,10.105,29.215,17.068v38.314c0,12.191-4.348,18.463-12.434,18.463c-6.834,0-9.947-5.574-9.947-17.068v-47.719
	H1.244v57.123c0,47.723,16.789,56.775,111.91,56.775c101.328,0,116.875-11.143,116.875-51.898v-49.113
	C230.029,369.314,215.727,369.664,126.83,340.75z"/>
<path fill="#FFFFFF" d="M368.709,423.775v-64.668c0-13.684-8.621-17.307-56.402-17.307c-49.207,0-58.545,2.279-58.545,20.662v6.977
	h52.445c0-7.381,1.795-11.137,5.742-11.137c3.596,0,5.391,1.744,5.391,5.232v12.746h-17.959c-31.609,0-45.619,4.693-45.619,16.635
	v13.148c0,14.09,7.543,17.711,56.752,17.711H368.709z M306.207,402.708v-3.756c0-4.025,3.588-6.037,11.133-6.037v14.891
	C309.795,407.806,306.207,406.064,306.207,402.708z"/>
<path fill="#FFFFFF" d="M392.691,303.984v88.832h57.619v-61.625c0-6.029,2.42-8.971,6.852-8.971c4.029,0,6.041,2.941,6.041,8.971
	v61.625h58.029v-61.625c0-6.029,2.42-8.971,6.85-8.971c4.432,0,6.443,2.941,6.443,8.971v61.625h58.43v-61.625
	c0-18.826-16.115-28.238-47.949-28.238c-13.301,0-24.584,1.914-33.045,5.883c-7.652-3.822-17.725-5.736-30.215-5.736
	c-12.902,0-23.375,1.914-31.436,5.736v-4.852H392.691z"/>
<path fill="#FFFFFF" d="M336.207,446.718h-57.471v69.936h40.771v-27.027c41.748-0.438,49.852-0.965,49.852-13.777v-13.598
	C369.359,449.439,362.232,446.718,336.207,446.718z M328.346,473.572c0,2.982-2.211,3.859-8.838,3.859v-18.779
	c5.893,0,8.838,1.492,8.838,4.389V473.572z"/>
<path fill="#FFFFFF" d="M561.77,427.683c-13.959-6.244-30.207-9.371-48.723-9.371c-26.611,0-49.227,5.195-67.844,15.584
	c-17.807,9.863-26.711,22.557-26.711,38.078c0,13.939,7.285,25.25,21.855,33.928c14.971,8.945,34.555,13.414,58.738,13.414
	c24.791,0,46.797-4.764,66.021-14.303c20.137-9.992,30.209-22.125,30.209-36.395c0-8.152-3.139-15.98-9.414-23.479
	C579.828,437.978,571.783,432.156,561.77,427.683z M513.047,495.15c-7.086,0-12.193-2.695-15.33-8.086
	c-3.137-5.262-5.842-11.293-8.119-18.1c-2.277-6.809-3.414-12.182-3.414-16.129c0-3.551,1.336-6.393,4.023-8.533
	c2.678-2.137,6.25-3.205,10.697-3.205c5.975,0.135,10.623,2.434,13.969,6.906c3.238,4.406,5.992,10.127,8.27,17.16
	c2.279,7.039,3.414,13.318,3.414,18.842C526.557,491.437,522.049,495.15,513.047,495.15z"/>
</svg>
